<svg xmlns="http://www.w3.org/2000/svg" data-name="Layer 1" viewBox="0 0 100 100" x="0px" y="0px"><title>08</title><g data-name="Group"><path data-name="Compound Path" d="M94.2,44.5a7,7,0,0,0-7-7H84.6a11,11,0,0,0-3.3-4.9A30.6,30.6,0,0,0,51,5.9H49A30.6,30.6,0,0,0,18.7,32.6a11,11,0,0,0-3.3,4.9H11.8a6,6,0,0,0-6,6v8.4a6,6,0,0,0,6,6h3.5a11,11,0,0,0,3.1,4.7v.5a29.8,29.8,0,0,0,12.2,24l1.9,1.4a29.7,29.7,0,0,0,35,0l1.9-1.4a29.8,29.8,0,0,0,12.2-24v-.5a11,11,0,0,0,3.1-4.7h2.5a7,7,0,0,0,7-7ZM49,11.9H51A24.6,24.6,0,0,1,74.7,30H25.3A24.6,24.6,0,0,1,49,11.9ZM65.8,82.2,64,83.6a23.7,23.7,0,0,1-28,0l-1.9-1.4a23.8,23.8,0,0,1-9.6-16.9H39.7a11,11,0,0,0,8.5-4h3.6a11,11,0,0,0,8.5,4H75.4A23.8,23.8,0,0,1,65.8,82.2ZM79.2,54.4a5,5,0,0,1-5,5h-14a5,5,0,0,1-4.2-2.2l-3.6-5.4a3,3,0,0,0-5,0l-3.6,5.4a5,5,0,0,1-4.2,2.2h-14a5,5,0,0,1-5-5V41a5,5,0,0,1,5-5H74.2a5,5,0,0,1,5,5Z"/></g></svg>