<svg xmlns="http://www.w3.org/2000/svg" xmlns:xlink="http://www.w3.org/1999/xlink" version="1.1" x="0px" y="0px" viewBox="0 0 55 57.5" style="enable-background:new 0 0 55 46;" xml:space="preserve"><path d="M54,34h-6.5v-8c0-0.553-0.448-1-1-1H28V12h6.5c0.552,0,1-0.447,1-1V1c0-0.553-0.448-1-1-1h-15c-0.552,0-1,0.447-1,1v10  c0,0.553,0.448,1,1,1H26v13H8c-0.552,0-1,0.447-1,1v8H1c-0.552,0-1,0.447-1,1v10c0,0.553,0.448,1,1,1h14.5c0.552,0,1-0.447,1-1V35  c0-0.553-0.448-1-1-1H9v-7h17v7h-6.5c-0.552,0-1,0.447-1,1v10c0,0.553,0.448,1,1,1H35c0.552,0,1-0.447,1-1V35c0-0.553-0.448-1-1-1  h-7v-7h17.5v7H39c-0.552,0-1,0.447-1,1v10c0,0.553,0.448,1,1,1h15c0.552,0,1-0.447,1-1V35C55,34.447,54.552,34,54,34z M14.5,36v8H2  v-8H14.5z M34,36v8H20.5v-8H34z M20.5,10V2h13v8H20.5z M53,44H40v-8h13V44z"/><text x="0" y="61" fill="#000000" font-size="5px" font-weight="bold" font-family="'Helvetica Neue', Helvetica, Arial-Unicode, Arial, Sans-serif">Created by Unlimiticon</text><text x="0" y="66" fill="#000000" font-size="5px" font-weight="bold" font-family="'Helvetica Neue', Helvetica, Arial-Unicode, Arial, Sans-serif">from the Noun Project</text></svg>