<svg xmlns="http://www.w3.org/2000/svg" xmlns:xlink="http://www.w3.org/1999/xlink" version="1.1" x="0px" y="0px" viewBox="0 0 512 512" enable-background="new 0 0 512 512" xml:space="preserve"><g><path d="M353.5,288.6c8.2-90.9-16-183.6-69.9-251.6L256,2l-27.6,35c-53.8,68.1-78.1,160.8-69.9,251.7c-23.2,24.8-36,56.9-36,91   c0,30,12.3,64.4,12.3,64.4s7.7-50.4,37.4-83.1c3.4,20.7,15,41.8,15,41.8h137.6c0,0,7.9-13.1,15-41.8c28.5,32.6,37.4,83.1,37.4,83.1   s12.4-26.7,12.4-64.4C389.6,345.6,376.7,313.5,353.5,288.6z M138.9,378.3c0.3-24.6,8.1-48,22.4-67.5c1.6,10.8,3.6,21.5,6,31.9   C155.8,353,146.2,365,138.9,378.3z M256,28.6c0,0,25.4,30.5,37.7,52.6h-75.5C229.6,58.9,256,28.6,256,28.6z M313.8,386.3h-49.5   v-74.2h-16.5v74.2h-49.5c-37.4-93.8-32-202.7,11.2-288.6h93.2C345.9,183.6,351.2,292.5,313.8,386.3z M344.6,342.6   c2.5-10.4,4.5-21,6.1-31.8c14.3,19.5,22.1,42.9,22.4,67.5C365.8,365,356.2,353,344.6,342.6z"/><path d="M256,114.2c-18.2,0-33,14.8-33,33c0,18.2,14.8,33,33,33s33-14.8,33-33C289,129,274.2,114.2,256,114.2z M256,163.7   c-9.1,0-16.5-7.4-16.5-16.5c0-9.1,7.4-16.5,16.5-16.5c9.1,0,16.5,7.4,16.5,16.5C272.5,156.3,265.1,163.7,256,163.7z"/><rect x="247.8" y="419.3" width="16.5" height="66"/><rect x="305.5" y="460.5" width="16.5" height="49.5"/><rect x="190" y="460.5" width="16.5" height="49.5"/></g></svg>